<svg width="56" height="60" viewBox="0 0 56 60" fill="none" xmlns="http://www.w3.org/2000/svg">
<path d="M38.5714 59.9631C36.9438 59.9631 35.3162 59.9511 33.6885 59.9631C32.7504 59.9631 32.3435 59.7098 32.9086 58.6363C34.1746 56.26 35.4179 53.8837 36.6273 51.4833C37.0681 50.6148 37.6785 50.3133 38.5601 50.3495C39.8599 50.3977 41.1598 50.3977 42.4596 50.3495C45.9974 50.2047 47.9641 46.6343 46.2687 43.2206C44.1098 38.8903 41.7814 34.6685 39.5434 30.3863C38.9896 29.3248 38.6279 29.542 38.1419 30.4708C34.6041 37.3342 30.9984 44.1494 27.4832 51.025C24.2054 57.4421 17.8984 60.9884 11.7722 59.7581C2.83159 57.9729 -1.87042 47.4666 2.51511 38.7455C6.39201 31.0498 10.5063 23.4867 14.5301 15.8753C16.4629 12.2205 18.3392 8.52939 20.3511 4.93482C22.2839 1.48499 25.1774 -0.167539 28.8961 0.013396C29.0317 0.013396 29.1787 0.0133919 29.3143 0.0375166C30.3316 0.146077 31.055 0.266701 31.4958 0.471761C32.4452 0.918067 32.2079 1.78655 31.1567 3.77683C24.341 16.6111 17.5367 29.4575 10.721 42.2918C9.98633 43.679 9.37598 45.0903 9.78288 46.767C10.6193 50.2047 14.2023 51.4351 17.2767 49.3362C18.2035 48.709 18.9156 47.8526 19.4582 46.8152C25.5391 35.2112 31.6201 23.6194 37.7011 12.0275C37.8367 11.7621 37.9836 11.4967 38.108 11.2314C38.594 10.1819 38.9896 10.1216 39.5774 11.2314C44.3133 20.266 49.1622 29.2404 53.8416 38.3233C59.007 48.3592 52.7113 59.9511 42.177 59.9752C40.9676 59.9752 39.7582 59.9752 38.5488 59.9752L38.5714 59.9631Z" fill="#5287E0"/>
</svg>
